<svg id="wordmark" width="128" height="40" viewBox="0 0 128 40" fill="none"
    xmlns="http://www.w3.org/2000/svg" alt="Logical logo" style="transform: scale(1);" class="">
    <path d="M67.5873 0V5.94155H61.6458V0H67.5873Z" fill="currentColor"></path>
    <path d="M67.8011 30.8814H62.2309V14.1066H59.6406V9.19655H67.8011V30.8814Z" fill="currentColor"></path>
    <path d="M127.141 30.8814V0.788525H121.571V30.8814H127.141Z" fill="currentColor"></path>
    <path fill-rule="evenodd" clip-rule="evenodd"
        d="M10.9218 13.2172C9.95901 14.9777 9.47764 17.0132 9.47764 19.3238C9.47764 21.6619 9.95901 23.7112 10.9218 25.4716C11.912 27.2046 13.2874 28.5662 15.0478 29.5565C16.8083 30.5192 18.8438 31.0006 21.1544 31.0006C23.4375 31.0006 25.4455 30.5192 27.1785 29.5565C28.939 28.5662 30.3143 27.2046 31.3046 25.4716C32.2948 23.7112 32.79 21.6619 32.79 19.3238C32.79 17.0132 32.2948 14.9777 31.3046 13.2172C30.3143 11.4567 28.939 10.0951 27.1785 9.13239C25.4455 8.16964 23.4375 7.68826 21.1544 7.68826C18.8438 7.68826 16.8083 8.16964 15.0478 9.13239C13.2874 10.0951 11.912 11.4567 10.9218 13.2172ZM26.2295 15.7754C26.6971 16.7656 26.9309 17.9484 26.9309 19.3238C26.9309 20.7267 26.6971 21.937 26.2295 22.9547C25.7619 23.9725 25.1017 24.7565 24.249 25.3066C23.3963 25.8567 22.3647 26.1318 21.1544 26.1318C19.9166 26.1318 18.8576 25.8567 17.9773 25.3066C17.1246 24.7565 16.4645 23.9725 15.9968 22.9547C15.5567 21.937 15.3367 20.7267 15.3367 19.3238C15.3367 17.9484 15.5567 16.7656 15.9968 15.7754C16.4645 14.7576 17.1246 13.9736 17.9773 13.4235C18.8576 12.8459 19.9166 12.557 21.1544 12.557C22.3647 12.557 23.3963 12.8459 24.249 13.4235C25.1017 13.9736 25.7619 14.7576 26.2295 15.7754Z"
        fill="currentColor"></path>
    <path
        d="M71.4837 19.4888C71.4837 17.1232 71.9789 15.0602 72.9691 13.2997C73.9594 11.5118 75.3347 10.1364 77.0952 9.17365C78.8556 8.18339 80.9187 7.68826 83.2843 7.68826C86.09 7.68826 88.4144 8.37594 90.2574 9.7513C92.2093 11.1788 93.5391 13.316 93.9296 15.702L88.1726 15.9312C87.8161 15.0427 87.1711 14.1227 86.4614 13.6298C85.4711 12.9146 84.3021 12.557 82.9542 12.557C81.1662 12.557 79.7771 13.1759 78.7869 14.4138C77.8241 15.6516 77.3428 17.302 77.3428 19.3651C77.3428 20.8229 77.5766 22.0608 78.0442 23.0785C78.5393 24.0963 79.2132 24.8665 80.066 25.3891C80.9187 25.9118 81.9089 26.1731 83.0367 26.1731C84.5221 26.1731 85.7187 25.788 86.6264 25.0178C87.3271 24.4201 87.8425 23.4543 88.1726 22.5788L94.0974 22.808C93.6927 24.5546 93.0673 26.1534 91.8253 27.4934C90.78 28.6212 89.4872 29.5014 87.9468 30.1341C86.4064 30.7393 84.7009 31.0418 82.8304 31.0418C80.5748 31.0418 78.5943 30.5742 76.8889 29.639C75.1834 28.6762 73.8493 27.3284 72.8866 25.5954C71.9514 23.8625 71.4837 21.8269 71.4837 19.4888Z"
        fill="currentColor"></path>
    <path fill-rule="evenodd" clip-rule="evenodd"
        d="M43.3842 26.463H49.7588C54.986 26.463 57.5358 28.932 57.5358 32.5504C57.5358 37.4458 52.8611 40 45.8066 40C38.667 40 35.0547 37.7013 35.0547 34.168C35.0547 31.9771 37.0201 30.6413 38.0516 30.6413V29.2264C37.1347 28.9971 35.9897 28.0802 35.9897 26.6758C35.9897 24.8879 36.9054 23.4957 39.0831 22.9307V21.6619C36.447 20.5158 35.6072 18.4359 35.6072 16.2464C35.6072 11.6063 39.9754 8.24334 45.8825 8.24334C47.478 8.24334 49.4135 8.51 50.5749 8.91972L53.0659 5.94155L56.8481 8.91972L54.5092 11.8759C55.5088 12.9906 56.0729 14.6294 56.0729 16.3741C56.0729 20.929 51.7472 23.9088 46.01 23.9088C44.9476 23.9088 42.9167 23.7811 41.9393 23.5257C41.3868 23.9088 41.2168 24.3771 41.2168 24.8879C41.2168 25.9947 42.1093 26.463 43.3842 26.463ZM50.6834 16.0761C50.6834 13.5848 48.0924 12.5265 45.8825 12.5265C43.7152 12.5265 41.0816 13.4235 41.0816 16.0761C41.0816 18.7287 43.6727 19.6257 45.925 19.6257C48.1349 19.6257 50.6834 18.5673 50.6834 16.0761ZM40.3669 33.0186C40.3669 34.8066 42.5768 35.4025 45.5516 35.4025C49.6313 35.4025 51.1612 34.466 51.1612 32.9335C51.1612 31.5287 50.1413 31.1882 48.8239 31.1882H42.8317C41.0469 31.1882 40.3669 32.0396 40.3669 33.0186Z"
        fill="currentColor"></path>
    <path fill-rule="evenodd" clip-rule="evenodd"
        d="M104.619 17.8705L111.386 16.4233V16.0963C111.386 14.7484 111.042 13.7444 110.354 13.0842C109.666 12.4241 108.621 12.094 107.218 12.094C105.843 12.094 104.743 12.4516 103.917 13.1668C103.208 13.7578 102.773 14.6029 102.613 15.702H97.1379L97.192 15.2711C97.3845 13.6756 97.9347 12.314 98.8424 11.1862C99.7776 10.0585 100.988 9.19198 102.473 8.58682C103.986 7.98166 105.705 7.67908 107.631 7.67908C110.602 7.67908 112.94 8.39427 114.645 9.82464C116.351 11.2275 117.203 13.3181 117.203 16.0963V24.8436V30.29H111.71V26.5765H110.437C110.134 27.9244 109.35 29.0109 108.085 29.8361C106.847 30.6338 105.389 31.0327 103.711 31.0327C101.813 31.0327 100.245 30.4825 99.0074 29.3822C97.7971 28.2819 97.192 26.8378 97.192 25.0499C97.192 23.1794 97.7834 21.6527 98.9662 20.4699C100.176 19.2871 102.061 18.4206 104.619 17.8705ZM106.641 20.8L111.386 19.8434V23.0693C111.166 23.7295 110.767 24.3347 110.189 24.8848C109.639 25.435 108.993 25.8613 108.25 26.1639C107.507 26.4665 106.751 26.6178 105.981 26.6178C105.073 26.6178 104.33 26.4115 103.752 25.9989C103.202 25.5587 102.927 24.8848 102.927 23.9771C102.927 23.2619 103.189 22.6292 103.711 22.0791C104.234 21.5289 105.21 21.1026 106.641 20.8Z"
        fill="currentColor"></path>
    <path d="M5.5702 30.8814V0.788525H0V30.8814H5.5702Z" fill="currentColor"></path>
</svg>